 <svg
          width="16"
          height="15"
          viewBox="0 0 16 15"
          fill="none"
          xmlns="http://www.w3.org/2000/svg"
        >
          <path
            d="M0.5 7.50003C0.5 3.66394 3.82698 0.500031 8 0.500031C12.173 0.500031 15.5 3.66394 15.5 7.50003C15.5 11.3361 12.173 14.5 8 14.5C3.82698 14.5 0.5 11.3361 0.5 7.50003Z"
            fill="#F7F7F7"
            stroke="#58B2D3"
          />
          <path
            d="M12.3801 6.44813L9.11465 2.75643C8.98812 2.61107 8.82076 2.53954 8.65341 2.53954C8.48605 2.53954 8.31911 2.61165 8.19175 2.75585C7.93664 3.04427 7.93664 3.5115 8.19175 3.79991L10.3433 6.23125L4.08177 6.23125C3.72114 6.23125 3.42871 6.56119 3.42871 6.96959C3.42871 7.37798 3.72114 7.70793 4.08177 7.70793L10.3433 7.70793L8.19216 10.1398C7.93705 10.4283 7.93705 10.8955 8.19216 11.1839C8.44727 11.4723 8.86056 11.4723 9.11567 11.1839L12.3811 7.49219C12.6352 7.20263 12.6352 6.73655 12.3801 6.44813Z"
            fill="#58B2D3"
            stroke="#58B2D3"
          />
        </svg>