  <svg
          width="16"
          height="15"
          viewBox="0 0 16 15"
          fill="none"
          xmlns="http://www.w3.org/2000/svg"
        >
          <path
            d="M8.06312 0.792389C4.00489 0.792389 0.71582 3.91745 0.71582 7.77333C0.71582 11.6292 4.00489 14.7543 8.06312 14.7543C12.1214 14.7543 15.4104 11.6292 15.4104 7.77333C15.4104 3.91745 12.1214 0.792389 8.06312 0.792389ZM11.3866 6.56803L7.71298 10.0585C7.55513 10.2085 7.35135 10.2821 7.14471 10.2821C6.93807 10.2821 6.73315 10.208 6.57616 10.0588L4.73933 8.31359C4.42621 8.01526 4.42621 7.53123 4.73933 7.23291C5.05331 6.93458 5.56275 6.93458 5.87673 7.23291L7.14471 8.4387L10.2501 5.48816C10.5641 5.18984 11.0735 5.18984 11.3875 5.48816C11.6995 5.7854 11.6995 6.27079 11.3866 6.56803Z"
            fill="white"
          />
        </svg>