
  <svg
    width="19"
    height="15"
    viewBox="0 0 19 15"
    fill="none"
    xmlns="http://www.w3.org/2000/svg"
  >
    <rect x="1.86499" y="11.4648" width="14.923" height="2.48717" fill="#BCC5CE" />
    <rect x="5.5957" y="11.4648" width="7.46151" height="2.48717" fill="#D3D9DD" />
    <path
      d="M12.5352 6.74661L9.32679 1.45996L6.1184 6.74661L0.564941 2.87316L1.97814 11.635H5.3694H8.47802H10.1756H13.2842H16.6754L18.0886 2.87316L12.5352 6.74661Z"
      fill="#BCC5CE"
    />
    <path
      d="M12.5353 6.74661L9.32688 1.45996L6.11849 6.74661L4.64282 5.71737L5.26053 11.635H5.36949H8.47811H10.1756H13.2843H13.3932L14.0108 5.71737L12.5353 6.74661Z"
      fill="#D3D9DD"
    />
    <path
      d="M16.6754 14.6023H1.97812C1.66595 14.6023 1.41284 14.3492 1.41284 14.0371V11.6346C1.41284 11.3224 1.66595 11.0693 1.97812 11.0693H16.6754C16.9876 11.0693 17.2407 11.3224 17.2407 11.6346V14.0371C17.2407 14.3492 16.9876 14.6023 16.6754 14.6023ZM2.5434 13.4718H16.1101V12.1999H2.5434V13.4718Z"
      fill="#4A4E59"
    />
    <path
      d="M16.6753 12.2001H1.97799C1.70057 12.2001 1.46415 11.9988 1.41991 11.7249L0.00671086 2.96303C-0.0293258 2.73904 0.0720008 2.51505 0.264196 2.39422C0.45625 2.27353 0.701865 2.27919 0.888266 2.40948L5.94753 5.93825L8.84346 1.16657C8.94592 0.997554 9.12907 0.894531 9.32663 0.894531C9.5242 0.894531 9.70749 0.997554 9.80995 1.16657L12.7057 5.93825L17.7651 2.40948C17.9511 2.27919 18.197 2.27353 18.3892 2.39422C18.5813 2.51505 18.6827 2.73904 18.6466 2.96303L17.2334 11.7249C17.1891 11.9988 16.9528 12.2001 16.6753 12.2001ZM2.45946 11.0696H16.1938L17.3181 4.09967L12.8585 7.21013C12.7303 7.29973 12.5709 7.33223 12.4183 7.29973C12.2655 7.2675 12.1328 7.17339 12.0518 7.03984L9.32663 2.54939L6.60142 7.03984C6.52044 7.17339 6.38788 7.2675 6.23511 7.29973C6.08221 7.33195 5.92294 7.29958 5.7949 7.21013L1.33526 4.09967L2.45946 11.0696Z"
      fill="#4A4E59"
    />
    <path
      d="M10.7006 8.2598C10.7006 9.20538 10.0854 9.97176 9.3267 9.97176C8.56781 9.97176 7.95264 9.20538 7.95264 8.2598C7.95264 7.31423 8.56781 6.54785 9.3267 6.54785C10.0854 6.54785 10.7006 7.31423 10.7006 8.2598Z"
      fill="#6498E2"
    />
    <path
      d="M9.32686 10.254C8.41337 10.254 7.67017 9.35913 7.67017 8.25924C7.67017 7.15949 8.41337 6.26465 9.32686 6.26465C10.2404 6.26465 10.9834 7.15949 10.9834 8.25924C10.9834 9.35913 10.2404 10.254 9.32686 10.254ZM9.32686 6.82993C8.72512 6.82993 8.23545 7.4711 8.23545 8.25924C8.23545 9.04738 8.72512 9.68869 9.32686 9.68869C9.9286 9.68869 10.4181 9.04738 10.4181 8.25924C10.4181 7.4711 9.9286 6.82993 9.32686 6.82993Z"
      fill="#4A4E59"
    />
    <path
      d="M9.80393 7.662C9.80393 7.84615 9.58276 7.99552 9.30973 7.99552C9.03684 7.99552 8.81567 7.84615 8.81567 7.662C8.81567 7.47786 9.03684 7.20215 9.30973 7.20215C9.58276 7.20215 9.80393 7.47786 9.80393 7.662Z"
      fill="#80B2ED"
    />
  </svg>

