<svg width="19" height="12" viewBox="0 0 19 12" fill="none" xmlns="http://www.w3.org/2000/svg">
<path d="M12.5352 5.94485L9.32679 0.658203L6.1184 5.94485L0.564941 2.0714L1.97814 10.8333H5.3694H8.47802H10.1756H13.2842H16.6754L18.0886 2.0714L12.5352 5.94485Z" fill="#DB7225"/>
<path d="M12.5353 5.94485L9.32688 0.658203L6.11849 5.94485L4.64282 4.91562L5.26053 10.8333H5.36949H8.47811H10.1756H13.2843H13.3932L14.0108 4.91562L12.5353 5.94485Z" fill="#FF8A34"/>
<path d="M16.6753 11.3984H1.97799C1.70057 11.3984 1.46415 11.197 1.41991 10.9231L0.00671086 2.16128C-0.0293258 1.93728 0.0720008 1.71329 0.264196 1.59246C0.45625 1.47178 0.701865 1.47743 0.888266 1.60773L5.94753 5.13649L8.84346 0.364815C8.94592 0.195796 9.12907 0.0927734 9.32663 0.0927734C9.5242 0.0927734 9.70749 0.195796 9.80995 0.364815L12.7057 5.13649L17.7651 1.60773C17.9511 1.47743 18.197 1.47178 18.3892 1.59246C18.5813 1.71329 18.6827 1.93728 18.6466 2.16128L17.2334 10.9231C17.1891 11.197 16.9528 11.3984 16.6753 11.3984ZM2.45946 10.2678H16.1938L17.3181 3.29791L12.8585 6.40837C12.7303 6.49797 12.5709 6.53047 12.4183 6.49797C12.2655 6.46575 12.1328 6.37163 12.0518 6.23808L9.32663 1.74763L6.60142 6.23808C6.52044 6.37163 6.38788 6.46575 6.23511 6.49797C6.08221 6.53019 5.92294 6.49783 5.7949 6.40837L1.33526 3.29791L2.45946 10.2678Z" fill="#4A4E59"/>
</svg>
