
  <svg
    width="24"
    height="18"
    viewBox="0 0 24 18"
    fill="none"
    xmlns="http://www.w3.org/2000/svg"
  >
    <rect x="4.31787" y="13.9619" width="14.923" height="2.48717" fill="#FFB600" />
    <rect x="8.04858" y="13.9619" width="7.46151" height="2.48717" fill="#FFC648" />
    <path
      d="M14.9881 9.2427L11.7797 3.95605L8.57128 9.2427L3.01782 5.36926L4.43102 14.1311H7.82228H10.9309H12.6284H15.7371H19.1283L20.5415 5.36926L14.9881 9.2427Z"
      fill="#FFB600"
    />
    <path
      d="M14.9881 9.2427L11.7798 3.95605L8.57137 9.2427L7.0957 8.21347L7.71341 14.1311H7.82237H10.931H12.6285H15.7371H15.8461L16.4637 8.21347L14.9881 9.2427Z"
      fill="#FFC648"
    />
    <path
      d="M19.1283 17.0994H4.431C4.11883 17.0994 3.86572 16.8463 3.86572 16.5341V14.1317C3.86572 13.8195 4.11883 13.5664 4.431 13.5664H19.1283C19.4405 13.5664 19.6936 13.8195 19.6936 14.1317V16.5341C19.6936 16.8463 19.4405 17.0994 19.1283 17.0994ZM4.99628 15.9689H18.563V14.697H4.99628V15.9689Z"
      fill="#4A4E59"
    />
    <path
      d="M19.1282 14.6972H4.43087C4.15346 14.6972 3.91703 14.4958 3.87279 14.222L2.45959 5.4601C2.42356 5.23611 2.52488 5.01212 2.71708 4.89129C2.90913 4.7706 3.15475 4.77626 3.34115 4.90655L8.40041 8.43532L11.2963 3.66364C11.3988 3.49462 11.5819 3.3916 11.7795 3.3916C11.9771 3.3916 12.1604 3.49462 12.2628 3.66364L15.1586 8.43532L20.218 4.90655C20.404 4.77626 20.6499 4.7706 20.8421 4.89129C21.0341 5.01212 21.1356 5.23611 21.0994 5.4601L19.6862 14.222C19.642 14.4958 19.4057 14.6972 19.1282 14.6972ZM4.91234 13.5667H18.6467L19.771 6.59674L15.3114 9.7072C15.1832 9.7968 15.0238 9.8293 14.8712 9.7968C14.7184 9.76458 14.5857 9.67046 14.5047 9.53691L11.7795 5.04646L9.0543 9.53691C8.97332 9.67046 8.84076 9.76458 8.68799 9.7968C8.53509 9.82902 8.37582 9.79665 8.24778 9.7072L3.78814 6.59674L4.91234 13.5667Z"
      fill="#4A4E59"
    />
    <path
      d="M13.1535 10.7569C13.1535 11.7024 12.5383 12.4688 11.7796 12.4688C11.0207 12.4688 10.4055 11.7024 10.4055 10.7569C10.4055 9.8113 11.0207 9.04492 11.7796 9.04492C12.5383 9.04492 13.1535 9.8113 13.1535 10.7569Z"
      fill="#ED4B48"
    />
    <path
      d="M11.7797 12.751C10.8663 12.751 10.123 11.8562 10.123 10.7563C10.123 9.65656 10.8663 8.76172 11.7797 8.76172C12.6932 8.76172 13.4363 9.65656 13.4363 10.7563C13.4363 11.8562 12.6932 12.751 11.7797 12.751ZM11.7797 9.327C11.178 9.327 10.6883 9.96817 10.6883 10.7563C10.6883 11.5445 11.178 12.1858 11.7797 12.1858C12.3815 12.1858 12.871 11.5445 12.871 10.7563C12.871 9.96817 12.3815 9.327 11.7797 9.327Z"
      fill="#4A4E59"
    />
    <path
      d="M12.2568 10.1591C12.2568 10.3432 12.0356 10.4926 11.7626 10.4926C11.4897 10.4926 11.2686 10.3432 11.2686 10.1591C11.2686 9.97493 11.4897 9.69922 11.7626 9.69922C12.0356 9.69922 12.2568 9.97493 12.2568 10.1591Z"
      fill="#F76D6D"
    />
    <path
      d="M2.4525 6.95578C1.10062 6.95578 0.000488281 5.85592 0.000488281 4.50377C0.000488281 3.15162 1.10062 2.05176 2.4525 2.05176C3.80438 2.05176 4.90451 3.15162 4.90451 4.50377C4.90451 5.85592 3.80438 6.95578 2.4525 6.95578ZM2.4525 4.23132C2.30238 4.23132 2.18005 4.35338 2.18005 4.50377C2.18005 4.65416 2.30238 4.77621 2.4525 4.77621C2.60262 4.77621 2.72495 4.65416 2.72495 4.50377C2.72495 4.35338 2.60262 4.23132 2.4525 4.23132Z"
      fill="#4A4E59"
    />
    <path
      d="M21.1061 6.95578C19.7542 6.95578 18.6541 5.85592 18.6541 4.50377C18.6541 3.15162 19.7542 2.05176 21.1061 2.05176C22.4579 2.05176 23.5581 3.15162 23.5581 4.50377C23.5581 5.85592 22.4579 6.95578 21.1061 6.95578ZM21.1061 4.23132C20.9559 4.23132 20.8336 4.35338 20.8336 4.50377C20.8336 4.65416 20.9559 4.77621 21.1061 4.77621C21.2562 4.77621 21.3785 4.65416 21.3785 4.50377C21.3785 4.35338 21.2562 4.23132 21.1061 4.23132Z"
      fill="#4A4E59"
    />
    <path
      d="M11.7799 4.90402C10.428 4.90402 9.32788 3.80416 9.32788 2.45201C9.32788 1.09986 10.428 0 11.7799 0C13.1318 0 14.2319 1.09986 14.2319 2.45201C14.2319 3.80416 13.1318 4.90402 11.7799 4.90402ZM11.7799 2.17957C11.6298 2.17957 11.5074 2.30162 11.5074 2.45201C11.5074 2.6024 11.6298 2.72446 11.7799 2.72446C11.93 2.72446 12.0523 2.6024 12.0523 2.45201C12.0523 2.30162 11.93 2.17957 11.7799 2.17957Z"
      fill="#4A4E59"
    />
    <path
      d="M3.67906 4.50335C3.67906 5.18038 3.13008 5.72935 2.45306 5.72935C1.77603 5.72935 1.22705 5.18038 1.22705 4.50335C1.22705 3.82632 1.77603 3.27734 2.45306 3.27734C3.13008 3.27734 3.67906 3.82632 3.67906 4.50335Z"
      fill="#FFB600"
    />
    <path
      d="M22.3326 4.50335C22.3326 5.18038 21.7836 5.72935 21.1066 5.72935C20.4296 5.72935 19.8806 5.18038 19.8806 4.50335C19.8806 3.82632 20.4296 3.27734 21.1066 3.27734C21.7836 3.27734 22.3326 3.82632 22.3326 4.50335Z"
      fill="#FFB600"
    />
    <path
      d="M13.0065 2.45159C13.0065 3.12862 12.4575 3.6776 11.7804 3.6776C11.1034 3.6776 10.5544 3.12862 10.5544 2.45159C10.5544 1.77456 11.1034 1.22559 11.7804 1.22559C12.4575 1.22559 13.0065 1.77456 13.0065 2.45159Z"
      fill="#FFB600"
    />
  </svg>
