 <svg
          width="14"
          height="13"
          viewBox="0 0 14 13"
          fill="none"
          xmlns="http://www.w3.org/2000/svg"
        >
          <path
            d="M4.46579 11.7513C3.24972 11.1658 2.2529 10.2215 1.62541 9.06271L2.50476 8.58652C2.11784 7.87203 1.89994 7.06221 1.89994 6.20216C1.89994 5.3421 2.11784 4.53228 2.50476 3.81779L1.62541 3.3416C2.2529 2.18285 3.24972 1.23855 4.46579 0.653009L4.89962 1.554C5.63406 1.20037 6.46544 1.00001 7.34963 1.00001C8.23381 1.00001 9.06519 1.20037 9.79964 1.554L10.2335 0.653008C11.4495 1.23855 12.4464 2.18285 13.0738 3.3416L12.1945 3.81779C12.5814 4.53228 12.7993 5.3421 12.7993 6.20216C12.7993 7.06221 12.5814 7.87203 12.1945 8.58652L13.0738 9.06271C12.4464 10.2215 11.4495 11.1658 10.2335 11.7513L9.79964 10.8503C9.06519 11.2039 8.23381 11.4043 7.34963 11.4043C6.46544 11.4043 5.63406 11.2039 4.89962 10.8503L4.46579 11.7513Z"
            stroke="white"
            stroke-width="2"
            stroke-dasharray="6 4"
          />
          <path
            d="M7.34979 11.0261C10.1206 11.0261 12.3662 8.86668 12.3662 6.20224C12.3662 3.53779 10.1206 1.37835 7.34979 1.37835C4.57899 1.37835 2.33336 3.53779 2.33336 6.20224C2.33336 8.86668 4.57899 11.0261 7.34979 11.0261ZM7.82008 8.16194C7.82008 8.41067 7.60844 8.61418 7.34979 8.61418C7.09113 8.61418 6.8795 8.41161 6.8795 8.16194L6.8795 5.75C6.8795 5.50032 7.09015 5.29776 7.34979 5.29776C7.60942 5.29776 7.82008 5.49938 7.82008 5.75L7.82008 8.16194ZM7.34979 3.4888C7.68996 3.4888 7.96587 3.75411 7.96587 4.08123C7.96587 4.40835 7.69016 4.67367 7.34979 4.67367C7.00941 4.67367 6.73371 4.40835 6.73371 4.08123C6.73449 3.75449 7.00883 3.4888 7.34979 3.4888Z"
            fill="#F7F7F7"
          />
        </svg>