<svg width="19" height="18" viewBox="0 0 19 18" fill="none" xmlns="http://www.w3.org/2000/svg">
<path d="M4.04394 9C4.04394 5.89219 6.56113 3.375 9.66894 3.375C12.7768 3.375 15.2939 5.89219 15.2939 9C15.2939 12.1078 12.7768 14.625 9.66894 14.625C6.56113 14.625 4.04394 12.1078 4.04394 9ZM18.6689 9C18.6689 13.9711 14.64 18 9.66894 18C4.69785 18 0.668945 13.9711 0.668945 9C0.668945 4.02891 4.69785 0 9.66894 0C14.64 0 18.6689 4.02891 18.6689 9ZM9.66894 15.75C13.3955 15.75 16.4189 12.7266 16.4189 9C16.4189 5.2418 13.3955 2.25 9.66894 2.25C5.91074 2.25 2.91895 5.2418 2.91895 9C2.91895 12.7266 5.91074 15.75 9.66894 15.75Z" fill="#BFBFBF"/>
<path d="M7.47 12C7.40333 12 7.35333 11.98 7.32 11.94C7.28667 11.8933 7.27667 11.8367 7.29 11.77L8.68 5.23C8.69333 5.16333 8.72333 5.11 8.77 5.07C8.82333 5.02333 8.88333 5 8.95 5H9.48C9.55333 5 9.60667 5.02333 9.64 5.07C9.67333 5.11 9.68333 5.16333 9.67 5.23L8.41 11.13H11.73C11.8033 11.13 11.8567 11.1533 11.89 11.2C11.9233 11.24 11.9333 11.2967 11.92 11.37L11.83 11.77C11.8167 11.8367 11.7867 11.8933 11.74 11.94C11.6933 11.98 11.6333 12 11.56 12H7.47Z" fill="black"/>
</svg>
